<?xml version="1.0" encoding="utf-8"?><svg viewBox="0 0 28 28" xmlns="http://www.w3.org/2000/svg" xmlns:xlink="http://www.w3.org/1999/xlink"><style>:root>svg{display:none}:root>svg:target{display:block}</style><svg fill="none" viewBox="0 0 20 21" id="bonuses" xmlns="http://www.w3.org/2000/svg"><path d="m10 0 2.225 3.31 3.653-1.305-.053 4.051 3.686 1.2L17.2 10.5l2.31 3.245-3.685 1.199.053 4.05-3.653-1.304L10 21l-2.225-3.31-3.653 1.305.053-4.051-3.686-1.2L2.8 10.5.49 7.255l3.685-1.199-.053-4.05L7.775 3.31 10 0Z" fill="#BB945F"/></svg><svg fill="none" viewBox="0 0 20 21" id="books" xmlns="http://www.w3.org/2000/svg"><path fill="#BB945F" d="M0 0h20v21H0z"/><path fill="#826844" d="M2 0h1v19H2z"/><path fill="#fff" d="M1 0h1v21H1z"/></svg><svg fill="none" viewBox="0 0 11 20" id="facebook" xmlns="http://www.w3.org/2000/svg"><path d="M9.12 3.32H11V.14A26.111 26.111 0 0 0 8.26 0C5.54 0 3.68 1.66 3.68 4.7v2.62H.61v3.56h3.07V20h3.68v-9.12h3.06l.46-3.56H7.36V5.05c0-1.05.28-1.73 1.76-1.73Z" fill="#F5EFDB"/></svg><svg fill="none" viewBox="0 0 21 20" id="github" xmlns="http://www.w3.org/2000/svg"><path d="M10.325.501C4.8.603.407 5.047.506 10.425c.08 4.304 3.011 7.9 7.007 9.114.502.083.68-.222.675-.48-.005-.232-.024-.844-.043-1.656-2.77.638-3.392-1.245-3.392-1.245-.476-1.115-1.139-1.404-1.139-1.404-.917-.587.06-.593.06-.593 1.004.05 1.549.976 1.549.976.919 1.472 2.36 1.015 2.927.756.078-.632.328-1.065.61-1.314-2.226-.203-4.575-.997-4.644-4.729a3.704 3.704 0 0 1 .98-2.632c-.116-.244-.472-1.228.04-2.58 0 0 .833-.276 2.769.949a9.843 9.843 0 0 1 2.493-.375c.85-.011 1.702.08 2.506.282 1.876-1.294 2.719-1.049 2.719-1.049.562 1.332.243 2.328.147 2.576a3.72 3.72 0 0 1 1.073 2.594c.07 3.742-2.253 4.608-4.473 4.89.355.285.691.876.708 1.789.024 1.303.031 2.35.037 2.667.005.255.185.557.696.45 3.976-1.353 6.771-5.058 6.692-9.355-.1-5.378-4.657-9.657-10.178-9.555Z" fill="#212121"/></svg><svg fill="none" viewBox="0 0 20 20" id="instagram" xmlns="http://www.w3.org/2000/svg"><path d="M15.34 3.46a1.2 1.2 0 1 0 0 2.4 1.2 1.2 0 0 0 0-2.4Zm4.6 2.42a7.588 7.588 0 0 0-.46-2.43 4.94 4.94 0 0 0-1.16-1.77A4.7 4.7 0 0 0 16.55.53a7.3 7.3 0 0 0-2.43-.47C13.06 0 12.72 0 10 0S6.94 0 5.88.06a7.3 7.3 0 0 0-2.43.47 4.78 4.78 0 0 0-1.77 1.15A4.7 4.7 0 0 0 .53 3.45a7.3 7.3 0 0 0-.47 2.43C0 6.94 0 7.28 0 10s0 3.06.06 4.12a7.3 7.3 0 0 0 .47 2.43 4.7 4.7 0 0 0 1.15 1.77 4.78 4.78 0 0 0 1.77 1.15 7.3 7.3 0 0 0 2.43.47C6.94 20 7.28 20 10 20s3.06 0 4.12-.06a7.3 7.3 0 0 0 2.43-.47 4.7 4.7 0 0 0 1.77-1.15 4.85 4.85 0 0 0 1.16-1.77c.285-.78.44-1.6.46-2.43 0-1.06.06-1.4.06-4.12s0-3.06-.06-4.12ZM18.14 14a5.61 5.61 0 0 1-.34 1.86 3.06 3.06 0 0 1-.75 1.15c-.324.33-.717.586-1.15.75a5.61 5.61 0 0 1-1.86.34c-1 .05-1.37.06-4 .06s-3 0-4-.06a5.73 5.73 0 0 1-1.94-.3 3.27 3.27 0 0 1-1.1-.75 3 3 0 0 1-.74-1.15 5.54 5.54 0 0 1-.4-1.9c0-1-.06-1.37-.06-4s0-3 .06-4a5.54 5.54 0 0 1 .35-1.9A3 3 0 0 1 3 3a3.14 3.14 0 0 1 1.1-.8A5.73 5.73 0 0 1 6 1.86c1 0 1.37-.06 4-.06s3 0 4 .06a5.61 5.61 0 0 1 1.86.34 3.06 3.06 0 0 1 1.19.8c.328.307.584.683.75 1.1.222.609.337 1.252.34 1.9.05 1 .06 1.37.06 4s-.01 3-.06 4ZM10 4.87A5.13 5.13 0 1 0 15.14 10 5.12 5.12 0 0 0 10 4.87Zm0 8.46a3.33 3.33 0 1 1 0-6.66 3.33 3.33 0 0 1 0 6.66Z" fill="#F5EFDB"/></svg><svg fill="none" viewBox="0 0 14 23" id="next" xmlns="http://www.w3.org/2000/svg"><path d="M13.06 12.56a1.5 1.5 0 0 0 0-2.12L3.516.892a1.5 1.5 0 1 0-2.122 2.122L9.88 11.5l-8.486 8.485a1.5 1.5 0 1 0 2.122 2.122l9.546-9.546ZM11 13h1v-3h-1v3Z" fill="#000"/></svg><svg fill="none" viewBox="0 0 14 23" id="prev" xmlns="http://www.w3.org/2000/svg"><path d="M.94 10.44a1.5 1.5 0 0 0 0 2.12l9.545 9.547a1.5 1.5 0 1 0 2.122-2.122L4.12 11.5l8.486-8.485A1.5 1.5 0 1 0 10.485.893L.94 10.44ZM3 10H2v3h1v-3Z" fill="#000"/></svg><svg fill="none" viewBox="0 0 28 28" id="profile" xmlns="http://www.w3.org/2000/svg"><path fill-rule="evenodd" clip-rule="evenodd" d="M28 14c0 7.732-6.268 14-14 14S0 21.732 0 14 6.268 0 14 0s14 6.268 14 14Zm-9.333-6.222a4.667 4.667 0 1 1-9.333 0 4.667 4.667 0 0 1 9.333 0Zm.833 8.5a7.778 7.778 0 0 1 2.278 5.5H6.222a7.778 7.778 0 0 1 13.278-5.5Z" fill="#fff"/></svg><svg fill="none" viewBox="0 0 23 20" id="twitter" xmlns="http://www.w3.org/2000/svg"><path d="M22.991 1.95a1 1 0 0 0-1.51-.86 7.48 7.48 0 0 1-1.873.794A5.152 5.152 0 0 0 16.233.642a5.233 5.233 0 0 0-5.223 5.063 11.032 11.032 0 0 1-6.814-3.924 1.011 1.011 0 0 0-.857-.365.998.998 0 0 0-.785.5 5.275 5.275 0 0 0-.242 4.769l-.002.002a1.041 1.041 0 0 0-.496.888c-.001.147.007.294.027.44a5.185 5.185 0 0 0 1.568 3.312.999.999 0 0 0-.066.77 5.204 5.204 0 0 0 2.362 2.921 7.465 7.465 0 0 1-3.59.449A1 1 0 0 0 1.45 17.3a12.942 12.942 0 0 0 7.01 2.061 12.788 12.788 0 0 0 12.465-9.363c.353-1.183.533-2.412.535-3.646l-.001-.2a5.77 5.77 0 0 0 1.532-4.202Zm-3.306 3.212a.995.995 0 0 0-.234.702c.01.165.009.331.009.488a10.826 10.826 0 0 1-.454 3.08 10.685 10.685 0 0 1-10.546 7.93c-.86 0-1.715-.101-2.55-.301a9.48 9.48 0 0 0 2.942-1.564 1.001 1.001 0 0 0-.602-1.786 3.208 3.208 0 0 1-2.214-.935c.15-.028.298-.063.445-.105a1 1 0 0 0-.08-1.944 3.197 3.197 0 0 1-2.25-1.725c.181.025.363.04.545.046a1.021 1.021 0 0 0 .984-.696 1 1 0 0 0-.4-1.137A3.196 3.196 0 0 1 3.86 4.344a13.014 13.014 0 0 0 8.21 3.48 1.02 1.02 0 0 0 .817-.36 1 1 0 0 0 .206-.867 3.164 3.164 0 0 1-.087-.729 3.23 3.23 0 0 1 4.506-2.962c.403.176.766.433 1.065.756a.993.993 0 0 0 .921.298 9.27 9.27 0 0 0 1.212-.322 6.679 6.679 0 0 1-1.026 1.524Z" fill="#F5EFDB"/></svg><svg fill="none" viewBox="0 0 21 21" id="visits" xmlns="http://www.w3.org/2000/svg"><path fill-rule="evenodd" clip-rule="evenodd" d="M10.5 10a5 5 0 1 0 0-10 5 5 0 0 0 0 10Zm7.071 3.929A10 10 0 0 1 20.5 21H.5a10 10 0 0 1 17.071-7.071Z" fill="#BB945F"/></svg></svg>